<?xml version="1.0" encoding="UTF-8" standalone="no"?>
<!-- Created with Inkscape (http://www.inkscape.org/) -->

<svg
   xmlns:dc="http://purl.org/dc/elements/1.1/"
   xmlns:cc="http://creativecommons.org/ns#"
   xmlns:rdf="http://www.w3.org/1999/02/22-rdf-syntax-ns#"
   xmlns:svg="http://www.w3.org/2000/svg"
   xmlns="http://www.w3.org/2000/svg"
   xmlns:sodipodi="http://sodipodi.sourceforge.net/DTD/sodipodi-0.dtd"
   xmlns:inkscape="http://www.inkscape.org/namespaces/inkscape"
   width="448.875"
   height="448.875"
   id="svg2"
   version="1.1"
   inkscape:version="0.48.2 r9819"
   sodipodi:docname="barsWide.svg"
   enable-background="new">
  <defs
     id="defs4">
    <filter
       inkscape:collect="always"
       id="filter3874">
      <feBlend
         inkscape:collect="always"
         mode="lighten"
         in2="BackgroundImage"
         id="feBlend3876" />
    </filter>
  </defs>
  <sodipodi:namedview
     id="base"
     pagecolor="#ffffff"
     bordercolor="#666666"
     borderopacity="1.0"
     inkscape:pageopacity="0.0"
     inkscape:pageshadow="2"
     inkscape:zoom="1.5639098"
     inkscape:cx="312.92904"
     inkscape:cy="233.51915"
     inkscape:document-units="px"
     inkscape:current-layer="layer1"
     showgrid="false"
     inkscape:window-width="1474"
     inkscape:window-height="950"
     inkscape:window-x="40"
     inkscape:window-y="73"
     inkscape:window-maximized="0"
     fit-margin-top="0"
     fit-margin-left="0"
     fit-margin-right="0"
     fit-margin-bottom="0"
     showguides="true"
     inkscape:guide-bbox="true" />
  <metadata
     id="metadata7">
    <rdf:RDF>
      <cc:Work
         rdf:about="">
        <dc:format>image/svg+xml</dc:format>
        <dc:type
           rdf:resource="http://purl.org/dc/dcmitype/StillImage" />
        <dc:title></dc:title>
      </cc:Work>
    </rdf:RDF>
  </metadata>
  <g
     inkscape:label="Layer 1"
     inkscape:groupmode="layer"
     id="layer1"
     transform="translate(-86.71875,-55.0625)"
     style="filter:url(#filter3874)">
    <path
       style="fill:#7f7f7f;fill-opacity:1;stroke:none"
       d="m 152.59608,56.796588 c 0,11.57808 0,107.002312 0,118.580392 -48.63619,0 -17.27239,0 -65.90858,0 0,71.66841 0,253.92336 0,325.59177 149.55448,0 59.10898,0 208.66346,0 0,-43.91614 0,-188.80342 0,-232.71956 -48.63619,0 -17.27239,0 -65.90858,0 0,-39.99137 0,-173.444282 0,-213.435642 -52.2821,0 -24.5642,0 -76.8463,0 l 0,0.99152 z"
       id="path4709"
       inkscape:connector-curvature="0"
       sodipodi:nodetypes="scccccccccs" />
    <path
       style="fill:#000000;stroke:none"
       d="m 95.572901,184.99286 c 47.452979,0 9.556599,0 57.009599,0 0,65.06132 0,240.70919 0,305.77051 -47.453,0 -9.55662,0 -57.009599,0 0,-65.06132 0,-240.70919 0,-305.77051 z"
       id="rect2988"
       inkscape:connector-curvature="0"
       sodipodi:nodetypes="ccccc" />
    <path
       style="fill:#000000;stroke:none"
       d="m 162.50781,64.729768 c 47.45299,0 9.55659,0 57.00959,0 0,77.297642 0,349.027942 0,426.325572 -47.453,0 -9.5566,0 -57.00959,0 0,-77.29763 0,-349.02793 0,-426.325572 z"
       id="rect2990"
       inkscape:connector-curvature="0"
       sodipodi:nodetypes="ccccc" />
    <path
       style="fill:#000000;stroke:none"
       d="m 229.40148,278.16677 c 47.45298,0 9.55659,0 57.00957,0 0,37.3058 0,175.58275 0,212.88856 -47.45298,0 -9.55659,0 -57.00957,0 0,-37.30581 0,-175.58276 0,-212.88856 z"
       id="rect2992"
       inkscape:connector-curvature="0"
       sodipodi:nodetypes="ccccc" />
  </g>
</svg>
