<?xml version="1.0" encoding="UTF-8" standalone="no"?>
<!-- Created with Inkscape (http://www.inkscape.org/) -->

<svg
   xmlns:dc="http://purl.org/dc/elements/1.1/"
   xmlns:cc="http://creativecommons.org/ns#"
   xmlns:rdf="http://www.w3.org/1999/02/22-rdf-syntax-ns#"
   xmlns:svg="http://www.w3.org/2000/svg"
   xmlns="http://www.w3.org/2000/svg"
   xmlns:sodipodi="http://sodipodi.sourceforge.net/DTD/sodipodi-0.dtd"
   xmlns:inkscape="http://www.inkscape.org/namespaces/inkscape"
   width="448.875"
   height="448.875"
   id="svg2"
   version="1.1"
   inkscape:version="0.48.2 r9819"
   sodipodi:docname="barsWide.svg"
   enable-background="new">
  <defs
     id="defs4">
    <filter
       inkscape:collect="always"
       id="filter3874">
      <feBlend
         inkscape:collect="always"
         mode="lighten"
         in2="BackgroundImage"
         id="feBlend3876" />
    </filter>
  </defs>
  <sodipodi:namedview
     id="base"
     pagecolor="#ffffff"
     bordercolor="#666666"
     borderopacity="1.0"
     inkscape:pageopacity="0.0"
     inkscape:pageshadow="2"
     inkscape:zoom="1.5639098"
     inkscape:cx="312.92904"
     inkscape:cy="172.05402"
     inkscape:document-units="px"
     inkscape:current-layer="layer1"
     showgrid="false"
     inkscape:window-width="1474"
     inkscape:window-height="950"
     inkscape:window-x="40"
     inkscape:window-y="73"
     inkscape:window-maximized="0"
     fit-margin-top="0"
     fit-margin-left="0"
     fit-margin-right="0"
     fit-margin-bottom="0"
     showguides="true"
     inkscape:guide-bbox="true" />
  <metadata
     id="metadata7">
    <rdf:RDF>
      <cc:Work
         rdf:about="">
        <dc:format>image/svg+xml</dc:format>
        <dc:type
           rdf:resource="http://purl.org/dc/dcmitype/StillImage" />
        <dc:title></dc:title>
      </cc:Work>
    </rdf:RDF>
  </metadata>
  <g
     inkscape:label="Layer 1"
     inkscape:groupmode="layer"
     id="layer1"
     transform="translate(-86.71875,-55.0625)"
     style="filter:url(#filter3874)">
    <path
       style="fill:#7f7f7f;fill-opacity:1;stroke:none"
       d="m 232.59608,375.22928 c 0,11.57808 0,25.15616 0,36.73424 -48.63619,0 -97.27239,0 -145.90858,0 0,71.66841 0,17.33682 0,89.00523 149.55448,0 299.10898,0 448.66346,0 0,-43.91614 0,-23.83227 0,-67.74841 -48.63619,0 -97.27239,0 -145.90858,0 0,-39.99137 0,-19.98274 0,-59.9741 -52.2821,0 -104.5642,0 -156.8463,0 l 0,0.99152 z"
       id="path4709"
       inkscape:connector-curvature="0"
       sodipodi:nodetypes="scccccccccs" />
    <path
       style="fill:#000000;stroke:none"
       d="m 95.572901,421.5794 c 47.452979,0 89.556599,0 137.009599,0 0,65.06132 0,4.12265 0,69.18397 -47.453,0 -89.55662,0 -137.009599,0 0,-65.06132 0,-4.12265 0,-69.18397 z"
       id="rect2988"
       inkscape:connector-curvature="0"
       sodipodi:nodetypes="ccccc" />
    <path
       style="fill:#000000;stroke:none"
       d="m 242.50781,383.16246 c 47.45299,0 89.55659,0 137.00959,0 0,77.29764 0,30.59525 0,107.89288 -47.453,0 -89.5566,0 -137.00959,0 0,-77.29763 0,-30.59524 0,-107.89288 z"
       id="rect2990"
       inkscape:connector-curvature="0"
       sodipodi:nodetypes="ccccc" />
    <path
       style="fill:#000000;stroke:none"
       d="m 389.40148,443.13792 c 47.45298,0 89.55659,0 137.00957,0 0,37.3058 0,10.6116 0,47.91741 -47.45298,0 -89.55659,0 -137.00957,0 0,-37.30581 0,-10.61161 0,-47.91741 z"
       id="rect2992"
       inkscape:connector-curvature="0"
       sodipodi:nodetypes="ccccc" />
  </g>
</svg>
