<?xml version="1.0" encoding="UTF-8" standalone="no"?>
<!-- Generator: Adobe Illustrator 16.2.1, SVG Export Plug-In . SVG Version: 6.00 Build 0)  -->

<svg
   xmlns:dc="http://purl.org/dc/elements/1.1/"
   xmlns:cc="http://creativecommons.org/ns#"
   xmlns:rdf="http://www.w3.org/1999/02/22-rdf-syntax-ns#"
   xmlns:svg="http://www.w3.org/2000/svg"
   xmlns="http://www.w3.org/2000/svg"
   xmlns:sodipodi="http://sodipodi.sourceforge.net/DTD/sodipodi-0.dtd"
   xmlns:inkscape="http://www.inkscape.org/namespaces/inkscape"
   version="1.1"
   id="Layer_1"
   x="0px"
   y="0px"
   width="512px"
   height="512px"
   viewBox="0 0 512 512"
   style="enable-background:new 0 0 512 512;"
   xml:space="preserve"
   inkscape:version="0.48.2 r9819"
   sodipodi:docname="wrenchByIonicons.svg"><metadata
   id="metadata9"><rdf:RDF><cc:Work
       rdf:about=""><dc:format>image/svg+xml</dc:format><dc:type
         rdf:resource="http://purl.org/dc/dcmitype/StillImage" /></cc:Work></rdf:RDF></metadata><defs
   id="defs7" /><sodipodi:namedview
   pagecolor="#ffffff"
   bordercolor="#666666"
   borderopacity="1"
   objecttolerance="10"
   gridtolerance="10"
   guidetolerance="10"
   inkscape:pageopacity="0"
   inkscape:pageshadow="2"
   inkscape:window-width="989"
   inkscape:window-height="827"
   id="namedview5"
   showgrid="true"
   inkscape:zoom="0.91"
   inkscape:cx="-25.285156"
   inkscape:cy="256"
   inkscape:window-x="0"
   inkscape:window-y="0"
   inkscape:window-maximized="0"
   inkscape:current-layer="Layer_1"><inkscape:grid
     type="xygrid"
     id="grid2986" /></sodipodi:namedview>
<path
   d="M461.9,114.9l-56.5,56.7l-55.1-10l-9.9-55.1l56.5-56.7c-12.7-12.7-30.8-18.5-44.2-17.8c-13.5,0.7-42.3,8.3-64.6,32  c-21.6,22.8-44.3,65.3-24.2,112.5c2.4,5.7,5.1,13.2-2.9,21.2c-8.1,8-215,202.8-215,202.8c-19.4,16.7-18,47.6-0.1,65.6  c18.2,17.9,48.9,19,65.6-0.3c0,0,193.2-205.8,202.7-215.1c8.5-8.3,16.1-5.5,21.2-2.9c35.6,18.4,86.3,2.4,112.6-23.9  c26.3-26.3,31.1-51.7,31.9-64.7C480.7,146.3,476.2,129.2,461.9,114.9z M91.3,443.2c-6.3,6.2-16.5,6.2-22.7,0  c-6.2-6.3-6.2-16.5,0-22.7c6.3-6.2,16.5-6.2,22.7,0C97.5,426.8,97.5,437,91.3,443.2z"
   id="path3"
   style="fill:#7f7f7f;fill-opacity:1" />
</svg>